<?xml version="1.0" encoding="UTF-8" standalone="no"?>
<!-- Created with Inkscape (http://www.inkscape.org/) -->

<svg
   xmlns:dc="http://purl.org/dc/elements/1.1/"
   xmlns:cc="http://creativecommons.org/ns#"
   xmlns:rdf="http://www.w3.org/1999/02/22-rdf-syntax-ns#"
   xmlns:svg="http://www.w3.org/2000/svg"
   xmlns="http://www.w3.org/2000/svg"
   xmlns:xlink="http://www.w3.org/1999/xlink"
   xmlns:sodipodi="http://sodipodi.sourceforge.net/DTD/sodipodi-0.dtd"
   xmlns:inkscape="http://www.inkscape.org/namespaces/inkscape"
   width="280"
   height="50"
   id="svg3210"
   version="1.1"
   inkscape:version="0.48.3.1 r9886"
   sodipodi:docname="logo.svg"
   inkscape:export-filename="/home/joaomak/Dropbox/jm/cinemalista/Apps/phonegap/www/img/logo.png"
   inkscape:export-xdpi="180"
   inkscape:export-ydpi="180">
  <defs
     id="defs3212">
    <linearGradient
       inkscape:collect="always"
       xlink:href="#linearGradient5358-63-4"
       id="linearGradient3147"
       gradientUnits="userSpaceOnUse"
       x1="-149.19952"
       y1="48.165298"
       x2="-149.19952"
       y2="5.7329974"
       gradientTransform="matrix(1.8402566,0,0,1.8402566,1301.7811,190.1458)" />
    <linearGradient
       inkscape:collect="always"
       id="linearGradient5358-63-4">
      <stop
         style="stop-color:#002487;stop-opacity:1"
         offset="0"
         id="stop5360-94-3" />
      <stop
         style="stop-color:#a5cdd2;stop-opacity:1"
         offset="1"
         id="stop5362-8-4" />
    </linearGradient>
  </defs>
  <sodipodi:namedview
     id="base"
     pagecolor="#173b7b"
     bordercolor="#666666"
     borderopacity="1.0"
     inkscape:pageopacity="0.69019608"
     inkscape:pageshadow="2"
     inkscape:zoom="1.979899"
     inkscape:cx="220.39996"
     inkscape:cy="15.435155"
     inkscape:document-units="px"
     inkscape:current-layer="layer1"
     showgrid="false"
     fit-margin-top="0"
     fit-margin-left="0"
     fit-margin-right="0"
     fit-margin-bottom="0"
     inkscape:showpageshadow="false"
     inkscape:window-width="1087"
     inkscape:window-height="643"
     inkscape:window-x="46"
     inkscape:window-y="25"
     inkscape:window-maximized="0" />
  <metadata
     id="metadata3215">
    <rdf:RDF>
      <cc:Work
         rdf:about="">
        <dc:format>image/svg+xml</dc:format>
        <dc:type
           rdf:resource="http://purl.org/dc/dcmitype/StillImage" />
        <dc:title></dc:title>
      </cc:Work>
    </rdf:RDF>
  </metadata>
  <g
     inkscape:label="Camada 1"
     inkscape:groupmode="layer"
     id="layer1"
     transform="translate(-165.24206,-322.13739)">
    <path
       style="font-size:46.68237686px;font-style:normal;font-variant:normal;font-weight:normal;font-stretch:normal;text-indent:0;text-align:start;text-decoration:none;line-height:100%;letter-spacing:normal;word-spacing:normal;text-transform:none;direction:ltr;block-progression:tb;writing-mode:lr-tb;text-anchor:start;fill:#ffffff;fill-opacity:1;fill-rule:nonzero;stroke:none;stroke-width:1px;marker:none;visibility:visible;font-family:BistroScript;-inkscape-font-specification:BistroScript"
       d="m 191.23877,322.88929 c -12.1531,0 -23.47133,13.10082 -23.47133,31.55775 0,17.84373 18.6256,22.45617 29.60872,7.33998 1.05015,2.78493 2.98023,3.93953 5.01772,3.93953 1.88055,-0.0256 3.64771,-0.69404 5.14214,-1.70022 0.15983,1.34787 1.65507,2.19237 5.05918,1.2026 3.05562,-6.29969 5.77926,-11.36508 8.41817,-15.84108 -1.80569,9.67053 0.0576,16.3387 5.47388,16.3387 3.01187,0 5.72262,-1.64138 7.46438,-3.85659 1.71899,3.56606 5.35115,5.34947 9.24755,5.34947 3.26065,0 6.37202,-1.67607 8.6255,-3.81513 -0.0643,1.96329 1.55457,3.00802 6.17885,1.49287 2.98613,-7.2391 5.22668,-12.58151 7.79613,-17.16807 -3.40282,14.69923 -2.57197,18.99183 3.40045,17.49983 l 6.59353,-12.31623 c -1.66673,7.01811 0.71099,12.81385 5.22508,12.81385 2.70826,0 5.18484,-1.35053 6.92528,-3.27603 1.11517,1.98231 2.99301,3.27603 5.80563,3.27603 2.22223,0 4.17836,-0.6651 6.26179,-3.48337 0.97218,2.984 3.2815,3.52484 5.01773,3.52484 2.82713,-0.0385 5.38434,-1.47353 7.13263,-3.48338 1.19262,2.27042 3.20761,3.44191 6.22031,3.44191 3.10593,0 5.70968,-1.80075 7.50586,-4.10541 1.03498,2.90242 3.02425,4.10541 5.10065,4.10541 3.63881,-0.0494 6.90096,-2.34926 8.45965,-5.26654 1.31952,-1.82356 2.65094,-5.29594 3.27602,-8.33522 2.01397,2.87355 4.27129,5.95996 4.27129,9.8281 0,3.14985 -1.87064,4.06394 -3.81512,4.06394 -1.52781,0 -3.02429,-0.96814 -3.64925,-1.90756 -1.45848,0.11008 -2.36373,0.88538 -2.36373,2.15638 0,0.77359 1.21569,2.15637 4.27129,2.15637 4.65289,0 10.4916,-3.25173 10.4916,-8.99872 0,-5.24982 -5.26654,-10.36899 -5.26654,-13.51883 2.43049,-1.87885 2.49905,-3.70566 0.20735,-5.80563 -4.30568,0 -7.09117,1.90938 -7.09117,5.22506 0,0.66302 0.0824,1.2996 0.29028,1.90757 l 0,0.0829 c -0.07,5.02869 -2.16292,10.728 -3.69072,13.10414 -1.46688,2.10173 -2.77419,2.61253 -3.93953,2.61253 -3.3335,0 -2.76732,-5.43915 0.70497,-17.20955 0.41668,-1.43671 -0.77646,-2.63925 -6.05445,-0.87084 -1.68187,5.87593 -2.15798,10.2725 -1.86609,13.47735 -0.10244,0.0323 -0.18594,0.0828 -0.29029,0.12441 -1.94449,3.7577 -3.60085,4.5201 -5.05918,4.5201 -2.22239,0 -3.55379,-4.1506 -3.27604,-10.61601 9.8614,-10.77581 11.29227,-26.01583 2.81987,-27.94996 -0.7639,-0.16585 -1.64128,-0.15182 -2.40518,0.45615 -4.64555,15.73578 -7.11648,27.49918 -5.8471,34.25323 -1.78087,3.14604 -3.32455,3.85659 -4.68598,3.85659 -3.12509,0 -2.76239,-5.13219 -0.33175,-11.8186 0.7639,-2.15514 0.23826,-3.15182 -0.45615,-3.48338 0.90284,-3.5367 -2.81951,-5.10067 -5.80564,-5.10067 -8.81976,0 -13.18707,7.73061 -13.18707,14.14086 0,0.92782 0.0913,1.8088 0.24881,2.654 -1.72252,2.94011 -3.2357,3.60779 -4.56156,3.60779 -2.56945,0 -2.89772,-5.02449 1.82462,-16.96074 -2.15275,-2.21042 -4.68852,-3.09471 -7.04969,-0.16587 -2.63893,3.26029 -4.14436,7.2331 -7.54732,13.64323 -0.07,-4.47611 1.0258,-11.86327 3.3175,-17.49983 -4.72236,-4.25499 -8.34193,-0.11357 -15.63373,18.28774 0.97217,-6.90755 2.36078,-13.86581 2.98575,-16.29723 0.55562,-2.0447 -2.08252,-2.32136 -5.97151,-0.66351 -0.69584,2.72616 -1.52452,8.97563 -2.07344,14.84583 -1.83642,3.83028 -4.69416,6.67648 -7.67173,6.67648 -2.22223,0 -4.0734,-1.27315 -4.97625,-3.81513 5.06957,-3.26029 10.07691,-8.42155 10.07691,-14.38967 0,-2.81828 -1.66676,-5.10066 -5.76415,-5.10066 -3.33336,0 -10.98924,2.66113 -10.98924,15.26051 0,0.58499 0.0159,1.12368 0.0829,1.65875 -1.94449,3.7577 -3.60087,4.5201 -5.05918,4.5201 -1.94451,0 -3.61325,-4.18306 0.41468,-19.15858 -2.63892,-2.54199 -5.46896,-2.26606 -6.5106,-0.6635 -3.19455,4.86297 -5.57937,8.86529 -9.53782,17.20954 0.83336,-5.4707 3.07815,-12.06989 3.981,-16.38016 0.27773,-1.38156 -1.53688,-2.11452 -3.89807,-1.28555 l -2.48813,0.87086 c -1.03049,6.12816 -1.85555,12.4855 -2.19784,16.87779 -1.43271,2.00098 -2.71329,2.48813 -3.8566,2.48813 -3.33335,0 -2.76733,-5.43915 0.70497,-17.20955 0.41668,-1.43671 -0.73513,-2.63925 -6.01297,-0.87084 -1.64643,5.75206 -2.16131,10.0831 -1.90756,13.27001 -11.00074,17.15744 -21.56378,8.45057 -21.56378,-5.9715 0,-9.94683 5.45913,-26.74737 14.3482,-26.74737 6.04189,0 0.51548,12.13938 -3.23456,17.16807 -0.41668,0.55258 -0.0817,1.82463 2.48813,1.82463 6.3891,0 15.55754,-21.60524 2.57105,-21.60524 z m 172.34431,5.26654 c -1.42367,0.0414 -3.35878,0.59483 -4.85185,1.36846 l -1.49287,7.79614 -5.51535,0 c -0.69444,1.04998 -0.76991,2.98572 1.24406,2.81988 l 3.77366,-0.20734 c -3.26402,17.68323 -3.46828,26.66443 4.93479,26.66443 3.10327,0 6.14668,-1.98418 8.29375,-4.27129 1.1062,2.04863 2.97985,3.40044 5.84711,3.40044 2.22238,0 4.17835,-0.6651 6.26179,-3.48337 0.97217,2.984 3.28149,3.52484 5.01771,3.52484 4.09725,-0.0556 7.7072,-3.043 8.95726,-6.46913 0.34722,-0.99471 -1.40485,-1.3543 -2.44665,-0.74644 -1.94449,3.7577 -3.60071,4.5201 -5.05919,4.5201 -3.12508,0 -2.80388,-5.13219 -0.37323,-11.8186 0.7639,-2.15514 0.27974,-3.15182 -0.41468,-3.48338 0.90286,-3.5367 -2.8195,-5.10067 -5.80564,-5.10067 -8.81974,0 -13.22854,7.73061 -13.22854,14.14086 0,0.88101 0.1071,1.72206 0.24882,2.5296 -1.48308,2.46481 -3.73836,5.05919 -6.75942,5.05919 -3.61124,0 -2.14329,-11.05234 0.91231,-24.75686 l 7.42292,-0.20734 c 0.97232,-1.49201 0.78827,-2.23932 -2.19785,-2.23932 l -4.68597,0.0829 c 0.55562,-2.43143 1.19953,-4.89474 1.82462,-7.38144 0.45144,-1.32628 -0.48388,-1.78314 -1.90756,-1.74169 z m -42.96167,5.39094 c 1.04164,4.14455 -0.55218,9.29174 -3.60778,14.26527 0.55563,-4.19984 1.73277,-9.07085 3.60778,-14.26527 z m -117.64696,1.16112 c -1.94465,0 -3.77367,1.35558 -3.77367,3.0687 0,3.70242 8.00348,3.57768 8.00348,0.0415 0,-2.59715 -2.28534,-3.11017 -4.22981,-3.11017 z m 128.55325,0 c -1.94449,0 -3.73218,1.35558 -3.73218,3.0687 0,3.70242 8.00348,3.57768 8.00348,0.0415 0,-2.59715 -2.32682,-3.11017 -4.2713,-3.11017 z m -88.03824,9.7037 c 0.7639,0 1.07818,0.52599 1.07818,1.74169 0,5.36027 -2.57067,9.66383 -5.55681,12.48211 -0.07,-0.44213 -0.0414,-0.9403 -0.0414,-1.49288 0,-9.06268 3.27003,-12.73092 4.5201,-12.73092 z m 55.19496,0.91231 c 2.77787,0 1.87409,3.38748 0.20734,4.76892 -0.07,0.88426 0.28536,1.27176 1.327,1.49287 -0.90285,8.78629 -3.16963,11.52833 -5.18359,11.52833 -1.45832,0 -2.23932,-2.21329 -2.23932,-5.14213 0,-5.2497 2.06907,-12.64799 5.88857,-12.64799 z m 82.06674,0 c 2.77787,0 1.8741,3.38748 0.20734,4.76892 -0.07,0.88426 0.28535,1.27176 1.32701,1.49287 -0.90286,8.78629 -3.2111,11.52833 -5.22507,11.52833 -1.45833,0 -2.19784,-2.21329 -2.19784,-5.14213 0,-5.2497 2.06904,-12.64799 5.88856,-12.64799 z"
       id="path4889-4-8"
       inkscape:connector-curvature="0"
       inkscape:export-filename="/home/joaomak/Dropbox/jm/cinemalista/Apps/phonegap/www/img/logo.png"
       inkscape:export-xdpi="179.98782"
       inkscape:export-ydpi="179.98782" />
    <path
       style="color:#000000;fill:#ffffff;fill-opacity:1;fill-rule:nonzero;stroke:none;stroke-width:11.19999981;marker:none;visibility:visible;display:inline;overflow:visible;enable-background:accumulate"
       d="m 407.24972,328.52905 c -1.47034,0 -2.654,1.23454 -2.654,2.7784 l 0,33.38238 c 0,1.54386 1.18366,2.77841 2.654,2.77841 l 33.63119,0 c 1.47034,0 2.65401,-1.23455 2.65401,-2.77841 l 0,-33.38238 c 0,-1.54386 -1.18367,-2.7784 -2.65401,-2.7784 l -33.63119,0 z m -0.58057,2.28078 3.19311,0 0,3.23457 -3.19311,0 0,-3.23457 z m 31.30894,0 3.23457,0 0,3.23457 -3.23457,0 0,-3.23457 z m -14.01644,2.44666 3.31749,9.95251 9.95251,0 -8.16935,6.30326 3.19311,10.28425 -8.25229,-6.38619 -8.33524,6.38619 3.23457,-10.28425 -8.21082,-6.30326 9.95251,0 3.31751,-9.95251 z m -17.2925,3.77366 3.19311,0 0,3.23456 -3.19311,0 0,-3.23456 z m 31.30894,0 3.23457,0 0,3.23456 -3.23457,0 0,-3.23456 z m -31.30894,6.22032 3.19311,0 0,3.23456 -3.19311,0 0,-3.23456 z m 31.30894,0 3.23457,0 0,3.23456 -3.23457,0 0,-3.23456 z m -31.30894,6.22032 3.19311,0 0,3.23456 -3.19311,0 0,-3.23456 z m 31.30894,0 3.23457,0 0,3.23456 -3.23457,0 0,-3.23456 z m -31.30894,6.22032 3.19311,0 0,3.23456 -3.19311,0 0,-3.23456 z m 31.30894,0 3.23457,0 0,3.23456 -3.23457,0 0,-3.23456 z m -31.30894,6.22032 3.19311,0 0,3.23456 -3.19311,0 0,-3.23456 z m 31.30894,0 3.23457,0 0,3.23456 -3.23457,0 0,-3.23456 z"
       id="rect5003-2-5"
       inkscape:connector-curvature="0"
       inkscape:export-filename="/home/joaomak/Dropbox/jm/cinemalista/Apps/phonegap/www/img/logo.png"
       inkscape:export-xdpi="179.98782"
       inkscape:export-ydpi="179.98782" />
  </g>
</svg>
